<svg xmlns="http://www.w3.org/2000/svg" width="182.725" height="252.294" viewBox="0 0 182.725 252.294">
  <g id="Group_1" data-name="Group 1" transform="translate(-2183 -735)">
    <path id="Path_1" data-name="Path 1" d="M126.149,55.893c21.824,0,0-21.824,0,0h0c0,21.824,21.824,0,0,0s0,21.824,0,0h0c0-21.824-21.824,0,0,0m0-55.893h0A48.128,48.128,0,0,0,78.162,47.987V65.2a48.128,48.128,0,0,0,47.987,47.987h0A48.128,48.128,0,0,0,174.135,65.2V47.987A48.128,48.128,0,0,0,126.149,0Z" transform="translate(2148.214 735)" fill="#fff"/>
    <path id="Path_2" data-name="Path 2" d="M126.149,194.4c31.332,5.921,0-32.084,0,0v0h0c0-32.081-31.332,5.921,0,0,8.945,4.174-9.845,0,0,0s-8.945,4.177,0,0m27.021-74.624a58.423,58.423,0,0,1-54.042,0A75.724,75.724,0,0,0,34.786,194.4v49.638a8.282,8.282,0,0,0,8.259,8.259H209.252a8.282,8.282,0,0,0,8.259-8.259V194.4a75.727,75.727,0,0,0-64.341-74.624Z" transform="translate(2148.214 735)" fill="#fff"/>
  </g>
</svg>
